                                                                        S      1
,,13HLED 3mm (Red),13HLED 3mm (Red),7Hunknown,7Hunknown,32,38,7,99,15,, G      1
1.,1,4HINCH,1,0.08,15H20191230.002123,0.000393700787401575,10000.,7HunknG      2
own,7Hunknown,11,0,15H20191230.051950;                                  G      3
     186       1                                                00000000D      1
     186            -201       1       0                               0D      2
     186       2                                                00000000D      3
     186            -203       1       0                               0D      4
     186       3                                                00000000D      5
     186            -203       1       0                               0D      6
     514       4                                                00010000D      7
     514                       1       1                               0D      8
     514       5                                                00010000D      9
     514                       1       1                               0D     10
     514       6                                                00010000D     11
     514                       1       1                               0D     12
     510       7                                                00010000D     13
     510            -201       1       1                               0D     14
     510       8                                                00010000D     15
     510            -201       1       1                               0D     16
     510       9                                                00010000D     17
     510            -201       1       1                               0D     18
     510      10                                                00010000D     19
     510            -201       1       1                               0D     20
     510      11                                                00010000D     21
     510            -201       1       1                               0D     22
     510      12                                                00010000D     23
     510            -203       1       1                               0D     24
     510      13                                                00010000D     25
     510            -203       1       1                               0D     26
     510      14                                                00010000D     27
     510            -203       1       1                               0D     28
     510      15                                                00010000D     29
     510            -203       1       1                               0D     30
     510      16                                                00010000D     31
     510            -203       1       1                               0D     32
     510      17                                                00010000D     33
     510            -203       1       1                               0D     34
     510      18                                                00010000D     35
     510            -203       1       1                               0D     36
     510      19                                                00010000D     37
     510            -203       1       1                               0D     38
     510      20                                                00010000D     39
     510            -203       1       1                               0D     40
     510      21                                                00010000D     41
     510            -203       1       1                               0D     42
     510      22                                                00010000D     43
     510            -203       1       1                               0D     44
     510      23                                                00010000D     45
     510            -203       1       1                               0D     46
     508      24                                                00010000D     47
     508                       1       1                               0D     48
     508      25                                                00010000D     49
     508                       1       1                               0D     50
     508      26                                                00010000D     51
     508                       1       1                               0D     52
     508      27                                                00010000D     53
     508                       1       1                               0D     54
     508      28                                                00010000D     55
     508                       2       1                               0D     56
     508      30                                                00010000D     57
     508                       2       1                               0D     58
     508      32                                                00010000D     59
     508                       1       1                               0D     60
     508      33                                                00010000D     61
     508                       1       1                               0D     62
     508      34                                                00010000D     63
     508                       1       1                               0D     64
     508      35                                                00010000D     65
     508                       1       1                               0D     66
     508      36                                                00010000D     67
     508                       1       1                               0D     68
     508      37                                                00010000D     69
     508                       1       1                               0D     70
     508      38                                                00010000D     71
     508                       1       1                               0D     72
     508      39                                                00010000D     73
     508                       1       1                               0D     74
     508      40                                                00010000D     75
     508                       1       1                               0D     76
     508      41                                                00010000D     77
     508                       1       1                               0D     78
     508      42                                                00010000D     79
     508                       1       1                               0D     80
     508      43                                                00010000D     81
     508                       1       1                               0D     82
     126      44                                                00010000D     83
     126       0              14       0                               0D     84
     126      58                                                00010000D     85
     126       0              14       0                               0D     86
     126      72                                                00010000D     87
     126       0              15       0                               0D     88
     126      87                                                00010000D     89
     126       0               5       0                               0D     90
     126      92                                                00010000D     91
     126       0               9       0                               0D     92
     126     101                                                00010000D     93
     126       0               6       0                               0D     94
     126     107                                                00010000D     95
     126       0               5       0                               0D     96
     126     112                                                00010000D     97
     126       0               6       0                               0D     98
     126     118                                                00010000D     99
     126       0               7       0                               0D    100
     126     125                                                00010000D    101
     126       0               4       0                               0D    102
     126     129                                                00010000D    103
     126       0               5       0                               0D    104
     126     134                                                00010000D    105
     126       0               4       0                               0D    106
     126     138                                                00010000D    107
     126       0               5       0                               0D    108
     126     143                                                00010000D    109
     126       0               3       0                               0D    110
     126     146                                                00010000D    111
     126       0               3       0                               0D    112
     126     149                                                00010000D    113
     126       0               3       0                               0D    114
     126     152                                                00010000D    115
     126       0               3       0                               0D    116
     126     155                                                00010000D    117
     126       0               3       0                               0D    118
     126     158                                                00010000D    119
     126       0               3       0                               0D    120
     126     161                                                00010000D    121
     126       0               3       0                               0D    122
     126     164                                                00010000D    123
     126       0               3       0                               0D    124
     126     167                                                00010000D    125
     126       0               4       0                               0D    126
     126     171                                                00010000D    127
     126       0               5       0                               0D    128
     126     176                                                00010000D    129
     126       0               4       0                               0D    130
     126     180                                                00010000D    131
     126       0               5       0                               0D    132
     126     185                                                00010000D    133
     126       0               3       0                               0D    134
     126     188                                                00010000D    135
     126       0               3       0                               0D    136
     126     191                                                00010000D    137
     126       0               3       0                               0D    138
     126     194                                                00010000D    139
     126       0               3       0                               0D    140
     126     197                                                00010000D    141
     126       0               3       0                               0D    142
     126     200                                                00010000D    143
     126       0               3       0                               0D    144
     126     203                                                00010000D    145
     126       0               3       0                               0D    146
     126     206                                                00010000D    147
     126       0               3       0                               0D    148
     128     209                                                00010000D    149
     128       0    -201       7       0                               0D    150
     128     216                                                00010000D    151
     128       0    -201       7       0                               0D    152
     128     223                                                00010000D    153
     128       0    -201      25       0                               0D    154
     128     248                                                00010000D    155
     128       0    -201      23       0                               0D    156
     128     271                                                00010000D    157
     128       0    -201      35       0                               0D    158
     128     306                                                00010000D    159
     128       0    -203       8       0                               0D    160
     128     314                                                00010000D    161
     128       0    -203       8       0                               0D    162
     128     322                                                00010000D    163
     128       0    -203       6       0                               0D    164
     128     328                                                00010000D    165
     128       0    -203       7       0                               0D    166
     128     335                                                00010000D    167
     128       0    -203       6       0                               0D    168
     128     341                                                00010000D    169
     128       0    -203       7       0                               0D    170
     128     348                                                00010000D    171
     128       0    -203       8       0                               0D    172
     128     356                                                00010000D    173
     128       0    -203       8       0                               0D    174
     128     364                                                00010000D    175
     128       0    -203       6       0                               0D    176
     128     370                                                00010000D    177
     128       0    -203       7       0                               0D    178
     128     377                                                00010000D    179
     128       0    -203       6       0                               0D    180
     128     383                                                00010000D    181
     128       0    -203       7       0                               0D    182
     502     390                                                00010000D    183
     502                       6       1                               0D    184
     502     396                                                00010000D    185
     502                       8       1                               0D    186
     502     404                                                00010000D    187
     502                       8       1                               0D    188
     504     412                                                00010001D    189
     504                       3       1                               0D    190
     504     415                                                00010001D    191
     504                       4       1                               0D    192
     504     419                                                00010001D    193
     504                       4       1                               0D    194
     406     423                                                00000000D    195
     406                       1      15                               0D    196
     406     424                                                00000000D    197
     406                       1      15                               0D    198
     406     425                                                00000000D    199
     406                       1      15                               0D    200
     314     426                                                00000200D    201
     314                       2       0                               0D    202
     314     428                                                00000200D    203
     314                       1       0                               0D    204
     314     429                                                00000200D    205
     314                       2       0                               0D    206
186,7,1,0,0,1,195;                                                     1P      1
186,9,1,0,0,1,197;                                                     3P      2
186,11,1,0,0,1,199;                                                    5P      3
514,5,13,1,15,1,17,1,19,1,21,1;                                        7P      4
514,6,23,1,25,1,27,1,29,1,31,1,33,1;                                   9P      5
514,6,35,1,37,1,39,1,41,1,43,1,45,1;                                  11P      6
510,149,2,1,47,49;                                                    13P      7
510,151,1,1,51;                                                       15P      8
510,153,1,1,53;                                                       17P      9
510,155,1,1,55;                                                       19P     10
510,157,1,1,57;                                                       21P     11
510,159,1,1,59;                                                       23P     12
510,161,1,1,61;                                                       25P     13
510,163,1,1,63;                                                       27P     14
510,165,1,1,65;                                                       29P     15
510,167,1,1,67;                                                       31P     16
510,169,1,1,69;                                                       33P     17
510,171,1,1,71;                                                       35P     18
510,173,1,1,73;                                                       37P     19
510,175,1,1,75;                                                       39P     20
510,177,1,1,77;                                                       41P     21
510,179,1,1,79;                                                       43P     22
510,181,1,1,81;                                                       45P     23
508,1,0,189,1,0,0;                                                    47P     24
508,1,0,189,2,1,0;                                                    49P     25
508,1,0,189,3,1,0;                                                    51P     26
508,4,0,189,3,0,0,0,189,4,1,0,0,189,1,1,0,0,189,4,0,0;                53P     27
508,6,0,189,5,0,0,0,189,6,0,0,0,189,7,1,0,0,189,2,0,0,0,189,7,0,      55P     28
0,0,189,8,0,0;                                                        55P     29
508,5,0,189,5,1,0,0,189,9,1,0,0,189,9,0,0,0,189,8,1,0,0,189,6,1,      57P     30
0;                                                                    57P     31
508,4,0,191,1,1,0,0,191,2,1,0,0,191,3,1,0,0,191,4,1,0;                59P     32
508,4,0,191,1,0,0,0,191,5,1,0,0,191,6,0,0,0,191,7,0,0;                61P     33
508,4,0,191,2,0,0,0,191,7,1,0,0,191,8,0,0,0,191,9,0,0;                63P     34
508,4,0,191,3,0,0,0,191,9,1,0,0,191,10,0,0,0,191,11,0,0;              65P     35
508,4,0,191,4,0,0,0,191,11,1,0,0,191,12,0,0,0,191,5,0,0;              67P     36
508,4,0,191,12,1,0,0,191,10,1,0,0,191,8,1,0,0,191,6,1,0;              69P     37
508,4,0,193,1,1,0,0,193,2,1,0,0,193,3,1,0,0,193,4,1,0;                71P     38
508,4,0,193,1,0,0,0,193,5,1,0,0,193,6,0,0,0,193,7,0,0;                73P     39
508,4,0,193,2,0,0,0,193,7,1,0,0,193,8,0,0,0,193,9,0,0;                75P     40
508,4,0,193,3,0,0,0,193,9,1,0,0,193,10,0,0,0,193,11,0,0;              77P     41
508,4,0,193,4,0,0,0,193,11,1,0,0,193,12,0,0,0,193,5,0,0;              79P     42
508,4,0,193,12,1,0,0,193,10,1,0,0,193,8,1,0,0,193,6,1,0;              81P     43
126,8,2,0,1,0,0,-3.14159265358979,-3.14159265358979,                  83P     44
-3.14159265358979,-1.5707963267949,-1.5707963267949,0.,0.,            83P     45
1.5707963267949,1.5707963267949,3.14159265358979,                     83P     46
3.14159265358979,3.14159265358979,1.,0.707106781186548,1.,            83P     47
0.707106781186547,1.,0.707106781186548,1.,0.707106781186548,1.,       83P     48
-0.1075,0.107939706674971,0.0398542746411838,-0.1075,                 83P     49
0.215439706674971,0.0398542746411838,6.58247654541702D-18,            83P     50
0.215439706674971,0.0398542746411838,0.1075,0.215439706674971,        83P     51
0.0398542746411838,0.1075,0.107939706674971,0.0398542746411838,       83P     52
0.1075,0.000439706674970513,0.0398542746411838,                       83P     53
6.58247654541702D-18,0.00043970667497051,0.0398542746411838,          83P     54
-0.1075,0.000439706674970507,0.0398542746411838,-0.1075,              83P     55
0.10793970667497,0.0398542746411838,-3.14159265358979,                83P     56
3.14159265358979,0.,0.,0.;                                            83P     57
126,8,2,0,1,0,0,-3.14159265358979,-3.14159265358979,                  85P     58
-3.14159265358979,-1.5707963267949,-1.5707963267949,0.,0.,            85P     59
1.5707963267949,1.5707963267949,3.14159265358979,                     85P     60
3.14159265358979,3.14159265358979,1.,0.707106781186548,1.,            85P     61
0.707106781186549,1.,0.707106781186548,1.,0.707106781186548,1.,       85P     62
-0.098,0.107939706674971,0.0398542746411838,-0.098,                   85P     63
0.20593970667497,0.0398542746411838,6.00076931582203D-18,             85P     64
0.20593970667497,0.0398542746411838,0.098,0.20593970667497,           85P     65
0.0398542746411838,0.098,0.107939706674971,0.0398542746411838,        85P     66
0.098,0.00993970667497053,0.0398542746411838,                         85P     67
6.00076931582203D-18,0.00993970667497051,0.0398542746411838,          85P     68
-0.098,0.00993970667497052,0.0398542746411838,-0.098,                 85P     69
0.10793970667497,0.0398542746411838,-3.14159265358979,                85P     70
3.14159265358979,0.,0.,0.;                                            85P     71
126,8,2,0,1,0,0,-3.14159265358979,-3.14159265358979,                  87P     72
-3.14159265358979,-1.5707963267949,-1.5707963267949,0.,0.,            87P     73
1.5707963267949,1.5707963267949,3.14159265358979,                     87P     74
3.14159265358979,3.14159265358979,1.,0.707106781186548,1.,            87P     75
0.707106781186547,1.,0.707106781186548,1.,0.707106781186548,1.,       87P     76
-0.1075,0.107939706674971,-0.000145725358816183,-0.1075,              87P     77
0.215439706674971,-0.000145725358816159,6.58247654541702D-18,         87P     78
0.215439706674971,-0.000145725358816159,0.1075,                       87P     79
0.215439706674971,-0.000145725358816159,0.1075,                       87P     80
0.107939706674971,-0.000145725358816183,0.1075,                       87P     81
0.000439706674970513,-0.000145725358816207,6.58247654541702D-18,      87P     82
0.00043970667497051,-0.000145725358816207,-0.1075,                    87P     83
0.000439706674970507,-0.000145725358816207,-0.1075,                   87P     84
0.10793970667497,-0.000145725358816183,-3.14159265358979,             87P     85
3.14159265358979,0.,0.,0.;                                            87P     86
126,1,1,0,0,1,0,-0.372093023255814,-0.372093023255814,                89P     87
1.87442891174582D-17,1.87442891174582D-17,1.,1.,-0.1075,              89P     88
0.107939706674971,-0.000145725358816183,-0.1075,                      89P     89
0.107939706674971,0.0398542746411838,-0.372093023255814,              89P     90
1.87442891174582D-17,0.,0.,0.;                                        89P     91
126,4,2,0,0,0,0,-7.85398163397448,-7.85398163397448,                  91P     92
-7.85398163397448,-6.28318530717959,-6.28318530717959,                91P     93
-4.71238898038469,-4.71238898038469,-4.71238898038469,1.,             91P     94
0.707106781186548,1.,0.707106781186548,1.,3.00038465791102D-17,       91P     95
0.00993970667497047,0.189854274641184,0.098,0.00993970667497051,      91P     96
0.189854274641184,0.098,0.10793970667497,0.189854274641184,           91P     97
0.098,0.20593970667497,0.189854274641184,-1.80023079474661D-17,       91P     98
0.20593970667497,0.189854274641184,-7.85398163397448,                 91P     99
-4.71238898038469,0.,0.,0.;                                           91P    100
126,2,2,0,0,0,0,-3.14159265358979,-3.14159265358979,                  93P    101
-3.14159265358979,-1.5707963267949,-1.5707963267949,                  93P    102
-1.5707963267949,1.,0.707106781186548,1.,-0.098,                      93P    103
0.10793970667497,0.189854274641184,-0.098,0.00993970667497047,        93P    104
0.189854274641184,6.00076931582203D-18,0.00993970667497047,           93P    105
0.189854274641184,-3.14159265358979,-1.5707963267949,0.,0.,0.;        93P    106
126,1,1,0,0,1,0,-1.53061224489796,-1.53061224489796,                  95P    107
9.63394557765681D-19,9.63394557765681D-19,1.,1.,-0.098,               95P    108
0.10793970667497,0.189854274641184,-0.098,0.107939706674971,          95P    109
0.0398542746411838,-1.53061224489796,9.63394557765681D-19,0.,0.,      95P    110
0.;                                                                   95P    111
126,2,2,0,0,0,0,-4.71238898038469,-4.71238898038469,                  97P    112
-4.71238898038469,-3.14159265358979,-3.14159265358979,                97P    113
-3.14159265358979,1.,0.707106781186549,1.,-1.80023079474661D-17,      97P    114
0.20593970667497,0.189854274641184,-0.098,0.20593970667497,           97P    115
0.189854274641184,-0.098,0.10793970667497,0.189854274641184,          97P    116
-4.71238898038469,-3.14159265358979,0.,0.,0.;                         97P    117
126,2,2,0,0,0,0,-6.59987536144195D-17,-6.59987536144195D-17,          99P    118
-6.59987536144195D-17,1.5707963267949,1.5707963267949,                99P    119
1.5707963267949,1.,0.707106781186547,1.,8.80601886895713D-34,         99P    120
0.20593970667497,0.189854274641184,8.80601886895713D-34,              99P    121
0.20593970667497,0.287854274641184,8.80601886895713D-34,              99P    122
0.10793970667497,0.287854274641184,-6.59987536144195D-17,             99P    123
1.5707963267949,0.,0.,0.;                                             99P    124
126,1,1,0,0,1,0,-0.028575,-0.028575,0.009525,0.009525,1.,1.,         101P    125
-0.0399999993957403,0.10043970667497,0.0976346203027429,             101P    126
-0.0399999993957403,0.115439706674971,0.0976346203027429,            101P    127
-0.028575,0.009525,0.,0.,0.;                                         101P    128
126,1,1,0,0,1,0,0.0253999992325902,0.0253999992325902,               103P    129
0.0761999992325902,0.0761999992325902,1.,1.,-0.0399999993957403,     103P    130
0.115439706674971,0.0976346203027429,-0.0599999993957403,            103P    131
0.115439706674971,0.0976346203027429,0.0253999992325902,             103P    132
0.0761999992325902,0.,0.,0.;                                         103P    133
126,1,1,0,0,1,0,-0.028575,-0.028575,0.009525,0.009525,1.,1.,         105P    134
-0.0599999993957403,0.115439706674971,0.0976346203027429,            105P    135
-0.0599999993957403,0.100439706674971,0.0976346203027429,            105P    136
-0.028575,0.009525,0.,0.,0.;                                         105P    137
126,1,1,0,0,1,0,-0.10159999923259,-0.10159999923259,                 107P    138
-0.0507999992325902,-0.0507999992325902,1.,1.,                       107P    139
-0.0599999993957403,0.100439706674971,0.0976346203027429,            107P    140
-0.0399999993957403,0.100439706674971,0.0976346203027429,            107P    141
-0.10159999923259,-0.0507999992325902,0.,0.,0.;                      107P    142
126,1,1,0,0,1,0,0.,0.,1.778,1.778,1.,1.,-0.0399999993957403,         109P    143
0.100439706674971,0.0976346203027429,-0.0399999993957403,            109P    144
0.100439706674971,-0.602365379697257,0.,1.778,0.,0.,0.;              109P    145
126,1,1,0,0,1,0,-0.0381,-0.0381,0.,0.,1.,1.,-0.0399999993957403,     111P    146
0.115439706674971,-0.602365379697257,-0.0399999993957403,            111P    147
0.100439706674971,-0.602365379697257,-0.0381,0.,0.,0.,0.;            111P    148
126,1,1,0,0,1,0,0.,0.,1.778,1.778,1.,1.,-0.0399999993957403,         113P    149
0.115439706674971,0.0976346203027429,-0.0399999993957403,            113P    150
0.115439706674971,-0.602365379697257,0.,1.778,0.,0.,0.;              113P    151
126,1,1,0,0,1,0,-0.0508,-0.0508,0.,0.,1.,1.,-0.0599999993957403,     115P    152
0.115439706674971,-0.602365379697257,-0.0399999993957403,            115P    153
0.115439706674971,-0.602365379697257,-0.0508,0.,0.,0.,0.;            115P    154
126,1,1,0,0,1,0,0.,0.,1.778,1.778,1.,1.,-0.0599999993957403,         117P    155
0.115439706674971,0.0976346203027429,-0.0599999993957403,            117P    156
0.115439706674971,-0.602365379697257,0.,1.778,0.,0.,0.;              117P    157
126,1,1,0,0,1,0,-0.0381,-0.0381,0.,0.,1.,1.,-0.0599999993957403,     119P    158
0.100439706674971,-0.602365379697257,-0.0599999993957403,            119P    159
0.115439706674971,-0.602365379697257,-0.0381,0.,0.,0.,0.;            119P    160
126,1,1,0,0,1,0,0.,0.,1.778,1.778,1.,1.,-0.0599999993957403,         121P    161
0.100439706674971,0.0976346203027429,-0.0599999993957403,            121P    162
0.100439706674971,-0.602365379697257,0.,1.778,0.,0.,0.;              121P    163
126,1,1,0,0,1,0,-0.0508,-0.0508,0.,0.,1.,1.,-0.0399999993957403,     123P    164
0.100439706674971,-0.602365379697257,-0.0599999993957403,            123P    165
0.100439706674971,-0.602365379697257,-0.0508,0.,0.,0.,0.;            123P    166
126,1,1,0,0,1,0,-0.028575,-0.028575,0.009525,0.009525,1.,1.,         125P    167
0.0599999993957403,0.10043970667497,0.0976346203027429,              125P    168
0.0599999993957403,0.115439706674971,0.0976346203027429,             125P    169
-0.028575,0.009525,0.,0.,0.;                                         125P    170
126,1,1,0,0,1,0,-0.10159999923259,-0.10159999923259,                 127P    171
-0.0507999992325902,-0.0507999992325902,1.,1.,                       127P    172
0.0599999993957403,0.115439706674971,0.0976346203027429,             127P    173
0.0399999993957403,0.115439706674971,0.0976346203027429,             127P    174
-0.10159999923259,-0.0507999992325902,0.,0.,0.;                      127P    175
126,1,1,0,0,1,0,-0.028575,-0.028575,0.009525,0.009525,1.,1.,         129P    176
0.0399999993957403,0.115439706674971,0.0976346203027429,             129P    177
0.0399999993957403,0.100439706674971,0.0976346203027429,             129P    178
-0.028575,0.009525,0.,0.,0.;                                         129P    179
126,1,1,0,0,1,0,0.0253999992325902,0.0253999992325902,               131P    180
0.0761999992325902,0.0761999992325902,1.,1.,0.0399999993957403,      131P    181
0.100439706674971,0.0976346203027429,0.0599999993957403,             131P    182
0.100439706674971,0.0976346203027429,0.0253999992325902,             131P    183
0.0761999992325902,0.,0.,0.;                                         131P    184
126,1,1,0,0,1,0,0.,0.,1.5875,1.5875,1.,1.,0.0599999993957403,        133P    185
0.100439706674971,0.0976346203027429,0.0599999993957403,             133P    186
0.100439706674971,-0.527365379697257,0.,1.5875,0.,0.,0.;             133P    187
126,1,1,0,0,1,0,-0.0381,-0.0381,0.,0.,1.,1.,0.0599999993957403,      135P    188
0.115439706674971,-0.527365379697257,0.0599999993957403,             135P    189
0.100439706674971,-0.527365379697257,-0.0381,0.,0.,0.,0.;            135P    190
126,1,1,0,0,1,0,0.,0.,1.5875,1.5875,1.,1.,0.0599999993957403,        137P    191
0.115439706674971,0.0976346203027429,0.0599999993957403,             137P    192
0.115439706674971,-0.527365379697257,0.,1.5875,0.,0.,0.;             137P    193
126,1,1,0,0,1,0,-0.0508,-0.0508,0.,0.,1.,1.,0.0399999993957403,      139P    194
0.115439706674971,-0.527365379697257,0.0599999993957403,             139P    195
0.115439706674971,-0.527365379697257,-0.0508,0.,0.,0.,0.;            139P    196
126,1,1,0,0,1,0,0.,0.,1.5875,1.5875,1.,1.,0.0399999993957403,        141P    197
0.115439706674971,0.0976346203027429,0.0399999993957403,             141P    198
0.115439706674971,-0.527365379697257,0.,1.5875,0.,0.,0.;             141P    199
126,1,1,0,0,1,0,-0.0381,-0.0381,0.,0.,1.,1.,0.0399999993957403,      143P    200
0.100439706674971,-0.527365379697257,0.0399999993957403,             143P    201
0.115439706674971,-0.527365379697257,-0.0381,0.,0.,0.,0.;            143P    202
126,1,1,0,0,1,0,0.,0.,1.5875,1.5875,1.,1.,0.0399999993957403,        145P    203
0.100439706674971,0.0976346203027429,0.0399999993957403,             145P    204
0.100439706674971,-0.527365379697257,0.,1.5875,0.,0.,0.;             145P    205
126,1,1,0,0,1,0,-0.0508,-0.0508,0.,0.,1.,1.,0.0599999993957403,      147P    206
0.100439706674971,-0.527365379697257,0.0399999993957403,             147P    207
0.100439706674971,-0.527365379697257,-0.0508,0.,0.,0.,0.;            147P    208
128,1,1,1,1,0,0,1,0,0,-0.27405,-0.27405,0.27405,0.27405,             149P    209
-0.27405,-0.27405,0.27405,0.27405,1.,1.,1.,1.,0.107893700787402,     149P    210
0.215833407462372,0.0398542746411838,-0.107893700787402,             149P    211
0.215833407462372,0.0398542746411838,0.107893700787402,              149P    212
4.60058875689565D-5,0.0398542746411838,-0.107893700787402,           149P    213
4.60058875689347D-5,0.0398542746411838,-0.27405,0.27405,             149P    214
-0.27405,0.27405;                                                    149P    215
128,1,1,1,1,0,0,1,0,0,-0.27405,-0.27405,0.27405,0.27405,             151P    216
-0.27405,-0.27405,0.27405,0.27405,1.,1.,1.,1.,                       151P    217
-0.107893700787402,0.215833407462372,-0.000145725358816159,          151P    218
0.107893700787402,0.215833407462372,-0.000145725358816159,           151P    219
-0.107893700787402,4.60058875689347D-5,-0.000145725358816207,        151P    220
0.107893700787402,4.60058875689565D-5,-0.000145725358816207,         151P    221
-0.27405,0.27405,-0.27405,0.27405;                                   151P    222
128,1,8,1,2,0,1,0,0,1,-1.87442891174582D-17,                         153P    223
-1.87442891174582D-17,0.372093023255814,0.372093023255814,           153P    224
-3.14159265358979,-3.14159265358979,-3.14159265358979,               153P    225
-1.5707963267949,-1.5707963267949,0.,0.,1.5707963267949,             153P    226
1.5707963267949,3.14159265358979,3.14159265358979,                   153P    227
3.14159265358979,1.,1.,0.707106781186548,0.707106781186548,1.,       153P    228
1.,0.707106781186548,0.707106781186548,1.,1.,0.707106781186548,      153P    229
0.707106781186548,1.,1.,0.707106781186548,0.707106781186548,1.,      153P    230
1.,-0.1075,0.107939706674971,-0.000145725358816183,-0.1075,          153P    231
0.107939706674971,0.0398542746411838,-0.1075,0.21543970667497,       153P    232
-0.000145725358816159,-0.1075,0.21543970667497,                      153P    233
0.0398542746411838,0.,0.215439706674971,-0.000145725358816159,       153P    234
0.,0.215439706674971,0.0398542746411838,0.1075,0.21543970667497,     153P    235
-0.000145725358816159,0.1075,0.21543970667497,                       153P    236
0.0398542746411838,0.1075,0.107939706674971,                         153P    237
-0.000145725358816183,0.1075,0.107939706674971,                      153P    238
0.0398542746411838,0.1075,0.000439706674970532,                      153P    239
-0.000145725358816207,0.1075,0.000439706674970532,                   153P    240
0.0398542746411838,0.,0.00043970667497051,-0.000145725358816207,     153P    241
0.,0.00043970667497051,0.0398542746411838,-0.1075,                   153P    242
0.000439706674970532,-0.000145725358816207,-0.1075,                  153P    243
0.000439706674970532,0.0398542746411838,-0.1075,                     153P    244
0.107939706674971,-0.000145725358816183,-0.1075,                     153P    245
0.107939706674971,0.0398542746411838,-1.87442891174582D-17,          153P    246
0.372093023255814,-3.14159265358979,3.14159265358979;                153P    247
128,1,8,1,2,0,1,0,0,1,-9.63394557765681D-19,                         155P    248
-9.63394557765681D-19,1.53061224489796,1.53061224489796,             155P    249
-3.14159265358979,-3.14159265358979,-3.14159265358979,               155P    250
-1.5707963267949,-1.5707963267949,0.,0.,1.5707963267949,             155P    251
1.5707963267949,3.14159265358979,3.14159265358979,                   155P    252
3.14159265358979,1.,1.,0.707106781186548,0.707106781186548,1.,       155P    253
1.,0.707106781186548,0.707106781186548,1.,1.,0.707106781186548,      155P    254
0.707106781186548,1.,1.,0.707106781186548,0.707106781186548,1.,      155P    255
1.,-0.098,0.10793970667497,0.189854274641184,-0.098,                 155P    256
0.107939706674971,0.0398542746411838,-0.098,0.00993970667497049,     155P    257
0.189854274641184,-0.098,0.00993970667497054,0.0398542746411838,     155P    258
0.,0.00993970667497047,0.189854274641184,0.,0.00993970667497051,     155P    259
0.0398542746411838,0.098,0.00993970667497049,0.189854274641184,      155P    260
0.098,0.00993970667497054,0.0398542746411838,0.098,                  155P    261
0.10793970667497,0.189854274641184,0.098,0.107939706674971,          155P    262
0.0398542746411838,0.098,0.20593970667497,0.189854274641184,         155P    263
0.098,0.20593970667497,0.0398542746411838,0.,0.20593970667497,       155P    264
0.189854274641184,0.,0.20593970667497,0.0398542746411838,-0.098,     155P    265
0.20593970667497,0.189854274641184,-0.098,0.20593970667497,          155P    266
0.0398542746411838,-0.098,0.10793970667497,0.189854274641184,        155P    267
-0.098,0.107939706674971,0.0398542746411838,                         155P    268
-9.63394557765681D-19,1.53061224489796,-3.14159265358979,            155P    269
3.14159265358979;                                                    155P    270
128,2,8,2,2,0,1,0,0,1,-1.5707963267949,-1.5707963267949,             157P    271
-1.5707963267949,6.59987536144195D-17,6.59987536144195D-17,          157P    272
6.59987536144195D-17,-3.14159265358979,-3.14159265358979,            157P    273
-3.14159265358979,-1.5707963267949,-1.5707963267949,0.,0.,           157P    274
1.5707963267949,1.5707963267949,3.14159265358979,                    157P    275
3.14159265358979,3.14159265358979,1.,0.707106781186547,1.,           157P    276
0.707106781186548,0.5,0.707106781186548,1.,0.707106781186547,1.,     157P    277
0.707106781186548,0.5,0.707106781186548,1.,0.707106781186547,1.,     157P    278
0.707106781186548,0.5,0.707106781186548,1.,0.707106781186547,1.,     157P    279
0.707106781186548,0.5,0.707106781186548,1.,0.707106781186547,1.,     157P    280
8.80601886895713D-34,0.20593970667497,0.189854274641184,             157P    281
8.80601886895713D-34,0.20593970667497,0.287854274641184,             157P    282
8.80601886895713D-34,0.10793970667497,0.287854274641184,0.098,       157P    283
0.20593970667497,0.189854274641184,0.098,0.20593970667497,           157P    284
0.287854274641184,8.80601886895713D-34,0.10793970667497,             157P    285
0.287854274641184,0.098,0.10793970667497,0.189854274641184,          157P    286
0.098,0.10793970667497,0.287854274641184,8.80601886895713D-34,       157P    287
0.10793970667497,0.287854274641184,0.098,0.00993970667497048,        157P    288
0.189854274641184,0.098,0.00993970667497045,0.287854274641184,       157P    289
8.80601886895713D-34,0.10793970667497,0.287854274641184,             157P    290
8.80601886895713D-34,0.00993970667497046,0.189854274641184,          157P    291
8.80601886895713D-34,0.00993970667497043,0.287854274641184,          157P    292
8.80601886895713D-34,0.10793970667497,0.287854274641184,-0.098,      157P    293
0.00993970667497048,0.189854274641184,-0.098,                        157P    294
0.00993970667497045,0.287854274641184,8.80601886895713D-34,          157P    295
0.10793970667497,0.287854274641184,-0.098,0.10793970667497,          157P    296
0.189854274641184,-0.098,0.10793970667497,0.287854274641184,         157P    297
8.80601886895713D-34,0.10793970667497,0.287854274641184,-0.098,      157P    298
0.20593970667497,0.189854274641184,-0.098,0.20593970667497,          157P    299
0.287854274641184,8.80601886895713D-34,0.10793970667497,             157P    300
0.287854274641184,8.80601886895713D-34,0.20593970667497,             157P    301
0.189854274641184,8.80601886895713D-34,0.20593970667497,             157P    302
0.287854274641184,8.80601886895713D-34,0.10793970667497,             157P    303
0.287854274641184,-1.5707963267949,6.59987536144195D-17,             157P    304
-3.14159265358979,3.14159265358979;                                  157P    305
128,1,1,1,1,0,0,1,0,0,-0.02005,-0.02005,0.0200500000000001,          159P    306
0.0200500000000001,-0.15339999846518,-0.15339999846518,              159P    307
-0.10059999846518,-0.10059999846518,1.,1.,1.,1.,                     159P    308
-0.0603937001831419,0.115833407462372,0.0976346203027429,            159P    309
-0.0603937001831419,0.100046005887569,0.0976346203027429,            159P    310
-0.0396062986083387,0.115833407462372,0.0976346203027429,            159P    311
-0.0396062986083387,0.100046005887569,0.0976346203027429,            159P    312
-0.02005,0.0200500000000001,-0.15339999846518,-0.10059999846518;     159P    313
128,1,1,1,1,0,0,1,0,0,-0.00100000000000002,-0.00100000000000002,     161P    314
0.0391,0.0391,-0.00100000000000001,-0.00100000000000001,1.779,       161P    315
1.779,1.,1.,1.,1.,-0.0399999993957403,0.115833407462372,             161P    316
0.0980283210901445,-0.0399999993957403,0.100046005887569,            161P    317
0.0980283210901445,-0.0399999993957403,0.115833407462372,            161P    318
-0.602759080484658,-0.0399999993957403,0.100046005887569,            161P    319
-0.602759080484658,-0.00100000000000002,0.0391,                      161P    320
-0.00100000000000001,1.779;                                          161P    321
128,1,1,1,1,0,0,1,0,0,-0.001,-0.001,0.0518,0.0518,-0.001,-0.001,     163P    322
1.779,1.779,1.,1.,1.,1.,-0.0603937001831419,0.115439706674971,       163P    323
0.0980283210901445,-0.0396062986083387,0.115439706674971,            163P    324
0.0980283210901445,-0.0603937001831419,0.115439706674971,            163P    325
-0.602759080484658,-0.0396062986083387,0.115439706674971,            163P    326
-0.602759080484658,-0.001,0.0518,-0.001,1.779;                       163P    327
128,1,1,1,1,0,0,1,0,0,-0.00100000000000006,-0.00100000000000006,     165P    328
0.0391,0.0391,-0.001,-0.001,1.779,1.779,1.,1.,1.,1.,                 165P    329
-0.0599999993957403,0.100046005887569,0.0980283210901445,            165P    330
-0.0599999993957403,0.115833407462372,0.0980283210901445,            165P    331
-0.0599999993957403,0.100046005887569,-0.602759080484658,            165P    332
-0.0599999993957403,0.115833407462372,-0.602759080484658,            165P    333
-0.00100000000000006,0.0391,-0.001,1.779;                            165P    334
128,1,1,1,1,0,0,1,0,0,-0.001,-0.001,0.0518,0.0518,-0.001,-0.001,     167P    335
1.779,1.779,1.,1.,1.,1.,-0.0396062986083387,0.100439706674971,       167P    336
0.0980283210901445,-0.0603937001831419,0.100439706674971,            167P    337
0.0980283210901445,-0.0396062986083387,0.100439706674971,            167P    338
-0.602759080484658,-0.0603937001831419,0.100439706674971,            167P    339
-0.602759080484658,-0.001,0.0518,-0.001,1.779;                       167P    340
128,1,1,1,1,0,0,1,0,0,-0.0200500000000001,-0.0200500000000001,       169P    341
0.02005,0.02005,-0.0264,-0.0264,0.0264,0.0264,1.,1.,1.,1.,           169P    342
-0.0603937001831419,0.100046005887569,-0.602365379697257,            169P    343
-0.0603937001831419,0.115833407462372,-0.602365379697257,            169P    344
-0.0396062986083387,0.100046005887569,-0.602365379697257,            169P    345
-0.0396062986083387,0.115833407462372,-0.602365379697257,            169P    346
-0.0200500000000001,0.02005,-0.0264,0.0264;                          169P    347
128,1,1,1,1,0,0,1,0,0,-0.02005,-0.02005,0.0200500000000001,          171P    348
0.0200500000000001,0.10059999846518,0.10059999846518,                171P    349
0.15339999846518,0.15339999846518,1.,1.,1.,1.,                       171P    350
0.0396062986083387,0.115833407462372,0.0976346203027429,             171P    351
0.0396062986083387,0.100046005887569,0.0976346203027429,             171P    352
0.0603937001831419,0.115833407462372,0.0976346203027429,             171P    353
0.0603937001831419,0.100046005887569,0.0976346203027429,             171P    354
-0.02005,0.0200500000000001,0.10059999846518,0.15339999846518;       171P    355
128,1,1,1,1,0,0,1,0,0,-0.00100000000000006,-0.00100000000000006,     173P    356
0.0391,0.0391,-0.00100000000000001,-0.00100000000000001,1.5885,      173P    357
1.5885,1.,1.,1.,1.,0.0599999993957403,0.115833407462372,             173P    358
0.0980283210901445,0.0599999993957403,0.100046005887569,             173P    359
0.0980283210901445,0.0599999993957403,0.115833407462372,             173P    360
-0.527759080484658,0.0599999993957403,0.100046005887569,             173P    361
-0.527759080484658,-0.00100000000000006,0.0391,                      173P    362
-0.00100000000000001,1.5885;                                         173P    363
128,1,1,1,1,0,0,1,0,0,-0.001,-0.001,0.0518,0.0518,-0.001,-0.001,     175P    364
1.5885,1.5885,1.,1.,1.,1.,0.0396062986083387,0.115439706674971,      175P    365
0.0980283210901445,0.0603937001831419,0.115439706674971,             175P    366
0.0980283210901445,0.0396062986083387,0.115439706674971,             175P    367
-0.527759080484658,0.0603937001831419,0.115439706674971,             175P    368
-0.527759080484658,-0.001,0.0518,-0.001,1.5885;                      175P    369
128,1,1,1,1,0,0,1,0,0,-0.00100000000000002,-0.00100000000000002,     177P    370
0.0391,0.0391,-0.001,-0.001,1.5885,1.5885,1.,1.,1.,1.,               177P    371
0.0399999993957403,0.100046005887569,0.0980283210901445,             177P    372
0.0399999993957403,0.115833407462372,0.0980283210901445,             177P    373
0.0399999993957403,0.100046005887569,-0.527759080484658,             177P    374
0.0399999993957403,0.115833407462372,-0.527759080484658,             177P    375
-0.00100000000000002,0.0391,-0.001,1.5885;                           177P    376
128,1,1,1,1,0,0,1,0,0,-0.001,-0.001,0.0518,0.0518,-0.001,-0.001,     179P    377
1.5885,1.5885,1.,1.,1.,1.,0.0603937001831419,0.100439706674971,      179P    378
0.0980283210901445,0.0396062986083387,0.100439706674971,             179P    379
0.0980283210901445,0.0603937001831419,0.100439706674971,             179P    380
-0.527759080484658,0.0396062986083387,0.100439706674971,             179P    381
-0.527759080484658,-0.001,0.0518,-0.001,1.5885;                      179P    382
128,1,1,1,1,0,0,1,0,0,-0.02005,-0.02005,0.02005,0.02005,-0.0264,     181P    383
-0.0264,0.0264,0.0264,1.,1.,1.,1.,0.0396062986083387,                181P    384
0.100046005887569,-0.527365379697257,0.0396062986083387,             181P    385
0.115833407462372,-0.527365379697257,0.0603937001831419,             181P    386
0.100046005887569,-0.527365379697257,0.0603937001831419,             181P    387
0.115833407462372,-0.527365379697257,-0.02005,0.02005,-0.0264,       181P    388
0.0264;                                                              181P    389
502,7,-0.1075,0.107939706674971,0.0398542746411838,-0.098,           183P    390
0.107939706674971,0.0398542746411838,-0.1075,0.107939706674971,      183P    391
-0.000145725358816183,8.80601886895713D-34,0.00993970667497048,      183P    392
0.189854274641184,8.80601886895713D-34,0.20593970667497,             183P    393
0.189854274641184,-0.098,0.10793970667497,0.189854274641184,         183P    394
8.80601886895713D-34,0.10793970667497,0.287854274641184;             183P    395
502,8,-0.0399999993957403,0.100439706674971,0.0976346203027429,      185P    396
-0.0399999993957403,0.115439706674971,0.0976346203027429,            185P    397
-0.0599999993957403,0.115439706674971,0.0976346203027429,            185P    398
-0.0599999993957403,0.100439706674971,0.0976346203027429,            185P    399
-0.0399999993957403,0.100439706674971,-0.602365379697257,            185P    400
-0.0399999993957403,0.115439706674971,-0.602365379697257,            185P    401
-0.0599999993957403,0.115439706674971,-0.602365379697257,            185P    402
-0.0599999993957403,0.100439706674971,-0.602365379697257;            185P    403
502,8,0.0599999993957403,0.100439706674971,0.0976346203027429,       187P    404
0.0599999993957403,0.115439706674971,0.0976346203027429,             187P    405
0.0399999993957403,0.115439706674971,0.0976346203027429,             187P    406
0.0399999993957403,0.100439706674971,0.0976346203027429,             187P    407
0.0599999993957403,0.100439706674971,-0.527365379697257,             187P    408
0.0599999993957403,0.115439706674971,-0.527365379697257,             187P    409
0.0399999993957403,0.115439706674971,-0.527365379697257,             187P    410
0.0399999993957403,0.100439706674971,-0.527365379697257;             187P    411
504,9,83,183,1,183,1,85,183,2,183,2,87,183,3,183,3,89,183,3,183,     189P    412
1,91,183,4,183,5,93,183,6,183,4,95,183,6,183,2,97,183,5,183,6,       189P    413
99,183,5,183,7;                                                      189P    414
504,12,101,185,1,185,2,103,185,2,185,3,105,185,3,185,4,107,185,      191P    415
4,185,1,109,185,1,185,5,111,185,6,185,5,113,185,2,185,6,115,185,     191P    416
7,185,6,117,185,3,185,7,119,185,8,185,7,121,185,4,185,8,123,185,     191P    417
5,185,8;                                                             191P    418
504,12,125,187,1,187,2,127,187,2,187,3,129,187,3,187,4,131,187,      193P    419
4,187,1,133,187,1,187,5,135,187,6,187,5,137,187,2,187,6,139,187,     193P    420
7,187,6,141,187,3,187,7,143,187,8,187,7,145,187,4,187,8,147,187,     193P    421
5,187,8;                                                             193P    422
406,1,4HBody;                                                        195P    423
406,1,12Hterminal pos;                                               197P    424
406,1,12Hterminal neg;                                               199P    425
314,98.8235294117647,0.392156862745098,2.74509803921569,9Hled (R     201P    426
ed);                                                                 201P    427
314,81.9607843137255,80.,75.2941176470588,17HNickel - Polished;      203P    428
314,62.7450980392157,62.7450980392157,62.7450980392157,13HSteel      205P    429
- Satin;                                                             205P    430
S      1G      3D    206P    430                                        T      1
